<?xml version="1.0" standalone="no"?>
<!DOCTYPE svg PUBLIC "-//W3C//DTD SVG 20010904//EN"
 "http://www.w3.org/TR/2001/REC-SVG-20010904/DTD/svg10.dtd">
<svg version="1.0" xmlns="http://www.w3.org/2000/svg"
 width="542.000000pt" height="542.000000pt" viewBox="0 0 542.000000 542.000000"
 preserveAspectRatio="xMidYMid meet">

<g transform="translate(0.000000,542.000000) scale(0.100000,-0.100000)"
fill="#000000" stroke="none">
<path d="M2061 4925 c-60 -28 -108 -65 -133 -104 -19 -28 -24 -91 -8 -91 21 0
158 100 189 137 31 38 41 83 19 83 -7 0 -37 -11 -67 -25z"/>
<path d="M3220 4941 c0 -45 54 -105 153 -171 66 -44 75 -47 83 -25 19 49 -43
125 -141 172 -71 34 -95 40 -95 24z"/>
<path d="M2275 4923 c-34 -18 -75 -59 -75 -75 0 -19 111 1 178 32 63 29 75 43
46 54 -30 12 -119 5 -149 -11z"/>
<path d="M2938 4933 c-30 -8 -20 -21 38 -48 65 -31 153 -51 178 -42 16 6 16
10 5 24 -8 9 -32 29 -53 45 -33 23 -48 28 -95 27 -31 -1 -64 -3 -73 -6z"/>
<path d="M1802 4820 c-107 -65 -170 -178 -129 -234 11 -15 18 -12 68 41 77 81
101 123 97 173 l-3 40 -33 -20z"/>
<path d="M3520 4803 c0 -16 9 -46 19 -68 24 -52 134 -171 149 -161 17 10 15
91 -2 124 -24 46 -124 132 -153 132 -8 0 -13 -12 -13 -27z"/>
<path d="M2057 4783 c-50 -13 -56 -17 -45 -31 34 -41 123 -52 245 -31 69 12
73 20 29 53 -35 27 -148 31 -229 9z"/>
<path d="M3086 4778 c-21 -13 -39 -27 -40 -33 -1 -13 95 -33 168 -34 59 -1
146 29 146 49 0 15 -70 31 -155 36 -71 5 -85 2 -119 -18z"/>
<path d="M2570 4724 c-14 -2 -68 -11 -120 -20 -95 -16 -242 -65 -335 -111 -88
-44 -236 -154 -314 -233 -181 -183 -300 -424 -346 -700 -30 -180 -8 -392 61
-590 100 -285 332 -549 604 -686 76 -38 165 -74 183 -74 7 0 30 30 52 67 57
95 77 113 130 113 54 0 55 5 22 123 l-22 79 -75 29 c-176 68 -306 170 -405
319 -274 412 -113 977 337 1184 101 47 176 65 293 72 105 7 191 -3 288 -31 66
-19 69 -28 37 -114 -50 -131 -107 -211 -194 -272 -28 -20 -68 -42 -88 -48
l-38 -13 -2 -346 -2 -347 -6 269 c-4 224 -7 270 -20 274 -8 3 -35 25 -61 49
-60 56 -124 179 -174 333 -20 63 -40 122 -44 130 -11 27 -12 -118 -3 -400 l9
-275 132 -520 c72 -287 131 -526 131 -533 0 -8 -22 -12 -69 -12 l-69 0 -45
-73 c-36 -57 -43 -74 -31 -80 7 -4 54 -17 103 -27 49 -11 100 -24 115 -29 17
-7 41 -6 78 3 29 8 89 21 133 31 44 9 84 21 89 26 6 5 -10 36 -39 79 l-48 70
-62 0 c-34 0 -64 2 -67 5 -3 3 5 43 19 88 13 45 35 120 49 167 14 47 36 121
49 165 68 225 175 588 219 746 22 80 25 109 21 185 -2 49 -7 165 -10 257 l-5
168 59 -31 c33 -18 94 -63 135 -102 185 -170 266 -356 266 -606 0 -135 -18
-219 -69 -328 -110 -234 -297 -393 -533 -453 -40 -10 -76 -25 -79 -32 -10 -19
-47 -139 -51 -163 -3 -17 4 -20 45 -23 27 -2 54 -9 61 -16 30 -30 96 -138 96
-156 0 -28 24 -27 117 4 342 115 632 394 759 731 152 404 88 846 -173 1195
-219 292 -567 471 -943 483 -69 3 -136 3 -150 0z"/>
<path d="M1880 4683 c-44 -16 -120 -55 -120 -62 0 -16 53 -31 108 -31 60 1
183 37 189 56 9 29 -124 57 -177 37z"/>
<path d="M3338 4675 c-16 -9 -28 -22 -28 -29 0 -19 125 -56 187 -56 53 0 103
16 103 32 0 5 -26 21 -57 36 -71 32 -165 40 -205 17z"/>
<path d="M1526 4619 c-29 -32 -52 -70 -62 -104 -15 -48 -16 -58 -3 -92 8 -21
21 -39 29 -41 17 -3 83 107 101 168 12 38 6 105 -10 115 -5 3 -30 -18 -55 -46z"/>
<path d="M3776 4654 c-16 -42 -5 -108 30 -178 54 -107 70 -119 92 -71 28 62 7
134 -66 222 -38 47 -47 51 -56 27z"/>
<path d="M1661 4515 c-69 -33 -111 -72 -91 -86 8 -5 39 -9 68 -9 42 0 70 8
128 37 78 39 90 57 48 73 -43 17 -96 11 -153 -15z"/>
<path d="M3542 4528 c-12 -6 -21 -16 -19 -22 2 -6 36 -28 76 -48 60 -31 83
-38 131 -38 32 0 62 5 65 11 10 16 -32 56 -89 84 -54 27 -123 32 -164 13z"/>
<path d="M1332 4416 c-36 -56 -57 -134 -48 -179 7 -39 48 -93 64 -84 18 12 56
139 56 192 1 35 -6 60 -21 84 l-21 34 -30 -47z"/>
<path d="M3976 4426 c-9 -19 -16 -56 -16 -83 0 -60 41 -188 61 -188 7 0 24 15
36 34 35 52 31 112 -13 200 -19 39 -39 71 -44 71 -4 0 -15 -15 -24 -34z"/>
<path d="M1521 4342 c-43 -24 -123 -102 -118 -116 2 -6 30 -11 64 -10 49 1 67
6 104 31 54 38 105 90 96 100 -17 16 -113 13 -146 -5z"/>
<path d="M3713 4353 c-26 -10 -12 -34 45 -78 60 -48 103 -65 165 -65 27 0 37
4 37 16 0 21 -78 96 -122 117 -34 16 -98 21 -125 10z"/>
<path d="M1187 4203 c-14 -22 -37 -122 -37 -156 0 -21 7 -54 16 -73 19 -40 71
-81 85 -67 5 5 12 50 15 100 6 81 5 96 -16 137 -21 44 -54 74 -63 59z"/>
<path d="M4143 4187 c-11 -12 -26 -33 -34 -47 -23 -46 -12 -240 15 -240 14 0
59 45 75 77 22 43 2 209 -28 227 -4 3 -17 -5 -28 -17z"/>
<path d="M2620 4132 c-20 -38 -31 -48 -55 -50 -16 -1 -41 -5 -54 -8 -24 -5
-23 -6 17 -47 39 -41 40 -43 33 -89 -9 -54 -7 -56 55 -32 39 15 43 15 83 -6
23 -11 45 -18 50 -16 5 3 5 27 0 53 -8 41 -6 50 13 72 13 14 29 30 36 34 22
14 13 26 -25 32 -65 11 -69 14 -92 60 -12 25 -25 45 -29 45 -4 0 -18 -21 -32
-48z"/>
<path d="M1408 4131 c-21 -10 -50 -33 -65 -51 -28 -33 -63 -86 -63 -95 0 -13
85 -3 118 14 58 30 151 129 135 144 -13 14 -90 6 -125 -12z"/>
<path d="M3830 4135 c0 -23 88 -114 132 -136 34 -17 118 -27 118 -13 0 30 -86
134 -126 150 -47 20 -124 19 -124 -1z"/>
<path d="M1066 3908 c-11 -44 -6 -159 9 -188 19 -36 75 -80 103 -80 26 0 28
20 11 119 -11 72 -28 109 -64 146 -32 31 -51 32 -59 3z"/>
<path d="M1324 3904 c-22 -14 -50 -41 -63 -60 -28 -40 -52 -106 -43 -116 14
-14 92 15 131 48 39 34 91 114 91 140 0 24 -72 17 -116 -12z"/>
<path d="M3920 3917 c0 -23 76 -133 106 -154 31 -22 112 -48 121 -39 21 21
-60 154 -112 183 -45 25 -115 31 -115 10z"/>
<path d="M4238 3903 c-45 -49 -61 -93 -66 -180 -5 -92 0 -98 57 -69 58 30 87
110 76 210 -8 76 -23 85 -67 39z"/>
<path d="M1335 3693 c-32 -8 -84 -51 -109 -91 -18 -30 -46 -111 -46 -136 0
-12 32 -5 69 13 65 34 121 112 138 194 6 28 -3 32 -52 20z"/>
<path d="M3975 3673 c11 -44 54 -126 82 -155 28 -29 109 -66 120 -54 12 12
-17 108 -47 151 -31 44 -97 85 -139 85 -20 0 -22 -4 -16 -27z"/>
<path d="M1002 3568 c8 -124 66 -198 154 -198 23 0 24 2 18 43 -7 42 -37 133
-52 152 -21 28 -85 75 -104 75 -19 0 -20 -4 -16 -72z"/>
<path d="M4305 3622 c-60 -38 -98 -107 -111 -199 l-7 -53 30 0 c77 0 140 87
145 200 3 74 -7 83 -57 52z"/>
<path d="M1335 3456 c-76 -33 -121 -97 -134 -192 -10 -71 -2 -82 40 -56 72 44
119 118 134 208 8 49 0 57 -40 40z"/>
<path d="M3993 3415 c8 -78 51 -152 111 -192 26 -18 53 -33 58 -33 18 0 -2
120 -27 171 -24 46 -60 76 -119 99 l-29 11 6 -56z"/>
<path d="M984 3293 c9 -68 49 -144 90 -171 23 -16 51 -24 83 -25 45 -2 48 0
46 21 -4 36 -49 124 -79 156 -29 30 -97 65 -128 66 -17 0 -18 -5 -12 -47z"/>
<path d="M4305 3321 c-50 -22 -89 -68 -121 -139 -31 -69 -31 -92 -1 -92 40 0
96 20 125 45 30 25 69 115 74 170 4 38 -20 43 -77 16z"/>
<path d="M1338 3203 c-59 -45 -88 -108 -88 -191 0 -41 5 -74 11 -78 17 -10 95
73 118 125 11 25 21 73 23 106 4 72 -10 80 -64 38z"/>
<path d="M3960 3170 c0 -76 28 -139 88 -197 24 -24 48 -43 52 -43 14 0 23 67
16 116 -8 62 -38 116 -85 153 -59 47 -71 43 -71 -29z"/>
<path d="M1010 3021 c0 -27 52 -131 77 -153 35 -32 94 -50 140 -43 23 3 45 11
49 16 7 12 -35 86 -73 126 -38 40 -77 59 -140 68 -50 6 -53 5 -53 -14z"/>
<path d="M4251 3025 c-24 -7 -59 -29 -78 -47 -43 -42 -97 -124 -89 -137 4 -5
26 -13 49 -16 49 -8 106 12 145 48 28 26 68 102 73 137 4 22 0 25 -26 27 -16
1 -50 -4 -74 -12z"/>
<path d="M1403 2970 c-71 -69 -91 -168 -53 -265 l12 -30 38 43 c64 72 94 180
71 261 -10 37 -23 35 -68 -9z"/>
<path d="M3897 3003 c-15 -14 -7 -164 9 -196 27 -52 77 -117 90 -117 18 0 34
56 34 119 0 69 -25 126 -74 169 -37 33 -48 37 -59 25z"/>
<path d="M1510 2763 c-37 -46 -62 -124 -54 -173 6 -38 44 -130 53 -130 9 0 55
79 72 120 26 66 8 220 -26 220 -7 0 -28 -17 -45 -37z"/>
<path d="M3789 2773 c-6 -16 -13 -55 -16 -88 -6 -68 19 -148 62 -200 l24 -29
23 49 c17 36 23 68 23 116 0 61 -3 71 -39 123 -43 62 -61 69 -77 29z"/>
<path d="M1102 2739 l-24 -9 23 -37 c57 -97 127 -139 210 -128 27 4 59 15 72
25 l22 19 -61 59 c-65 61 -112 82 -180 81 -22 0 -49 -4 -62 -10z"/>
<path d="M4095 2725 c-51 -27 -125 -97 -125 -119 0 -34 106 -54 165 -32 64 25
163 141 140 164 -3 4 -34 8 -68 10 -52 3 -70 -1 -112 -23z"/>
<path d="M3656 2608 c-26 -40 -46 -108 -46 -157 0 -54 22 -137 45 -166 15 -20
15 -20 36 5 63 77 77 177 34 262 -14 27 -31 56 -39 64 -13 13 -17 12 -30 -8z"/>
<path d="M1656 2584 c-14 -21 -31 -62 -37 -91 -16 -71 -4 -115 60 -212 16 -24
36 3 62 81 20 62 21 78 12 123 -13 60 -43 127 -60 132 -6 2 -23 -13 -37 -33z"/>
<path d="M1253 2475 c-42 -18 -41 -35 4 -80 56 -56 107 -78 169 -73 51 4 134
46 134 67 0 13 -106 81 -143 92 -46 13 -127 10 -164 -6z"/>
<path d="M3946 2483 c-49 -13 -150 -89 -139 -105 11 -20 109 -58 147 -58 21 0
59 10 83 22 42 21 113 88 113 107 0 28 -139 50 -204 34z"/>
<path d="M1834 2435 c-38 -91 -35 -177 8 -239 27 -38 69 -76 85 -76 29 0 43
147 23 222 -11 40 -66 119 -88 126 -7 2 -19 -12 -28 -33z"/>
<path d="M3460 2428 c-33 -46 -60 -124 -60 -175 0 -37 19 -124 29 -136 4 -4
28 12 53 36 55 54 83 119 76 181 -7 56 -39 136 -55 136 -7 0 -26 -19 -43 -42z"/>
<path d="M2040 2305 c-17 -62 -8 -146 22 -187 45 -64 117 -115 145 -103 23 8
12 150 -17 209 -22 47 -100 126 -123 126 -8 0 -20 -19 -27 -45z"/>
<path d="M3238 2308 c-62 -59 -90 -123 -91 -214 -1 -40 1 -76 6 -80 22 -22
131 62 158 121 31 67 20 215 -16 215 -7 0 -33 -19 -57 -42z"/>
<path d="M2285 2241 c-16 -95 36 -205 119 -248 37 -19 117 -43 126 -38 11 7
-9 104 -31 155 -25 58 -81 115 -141 146 -26 13 -52 24 -57 24 -5 0 -12 -17
-16 -39z"/>
<path d="M3015 2263 c-98 -52 -167 -152 -181 -262 l-7 -54 29 7 c49 12 128 51
157 78 43 40 67 104 67 181 0 75 -8 81 -65 50z"/>
<path d="M1488 2256 c-50 -20 -88 -46 -88 -61 0 -21 88 -73 145 -86 44 -10 60
-9 102 5 42 14 123 74 123 92 0 3 -25 17 -57 31 -68 31 -170 40 -225 19z"/>
<path d="M3668 2243 c-38 -14 -68 -31 -68 -38 0 -8 19 -29 41 -49 53 -45 125
-63 186 -47 44 12 136 70 137 86 1 14 -61 53 -103 65 -58 16 -121 11 -193 -17z"/>
<path d="M1795 2091 c-47 -12 -107 -46 -139 -80 -29 -30 -29 -31 -10 -46 49
-37 156 -54 225 -35 65 18 173 132 137 145 -65 23 -156 30 -213 16z"/>
<path d="M3420 2089 c-69 -12 -78 -21 -55 -56 50 -78 132 -119 219 -110 66 7
146 40 146 61 0 15 -37 46 -100 84 -42 25 -134 34 -210 21z"/>
<path d="M2165 1978 c-33 -4 -83 -19 -112 -33 -52 -26 -133 -106 -133 -131 0
-36 192 -44 256 -11 16 8 44 30 61 47 32 33 81 116 73 123 -11 10 -90 13 -145
5z"/>
<path d="M3088 1982 c-21 -2 -38 -6 -38 -10 0 -14 42 -87 64 -111 44 -49 97
-74 167 -79 69 -5 169 13 169 29 0 18 -92 108 -135 134 -45 26 -151 43 -227
37z"/>
<path d="M2565 1936 c-142 -28 -221 -79 -279 -179 -42 -70 -33 -81 62 -74 98
7 141 20 194 60 65 49 139 209 96 206 -7 -1 -40 -6 -73 -13z"/>
<path d="M2717 1944 c-9 -9 14 -88 35 -122 56 -90 141 -135 265 -139 45 -1 84
1 87 6 11 16 -50 115 -96 156 -36 32 -67 49 -130 68 -84 26 -152 39 -161 31z"/>
<path d="M565 1569 c-17 -4 -46 -24 -64 -43 -51 -53 -61 -112 -61 -376 1 -278
9 -348 45 -396 70 -92 242 -100 318 -16 32 35 46 93 47 190 l0 92 -65 0 -65 0
0 -88 c0 -100 -12 -122 -68 -122 -47 0 -58 19 -66 112 -10 130 -6 448 7 488
11 31 16 35 50 38 62 5 77 -16 77 -105 l0 -73 65 0 65 0 0 73 c0 125 -32 191
-107 223 -36 15 -131 17 -178 3z"/>
<path d="M3384 1569 c-43 -12 -90 -63 -109 -117 -22 -67 -22 -578 1 -645 35
-103 160 -154 277 -113 48 18 73 40 101 91 20 38 21 52 21 345 0 293 -1 307
-21 345 -27 49 -49 70 -97 90 -40 16 -124 19 -173 4z m141 -142 c20 -29 22
-548 2 -587 -16 -32 -79 -40 -108 -14 -18 16 -19 35 -19 304 0 261 2 288 18
302 35 31 83 29 107 -5z"/>
<path d="M4233 1559 c-24 -11 -53 -38 -69 -62 -25 -38 -28 -51 -29 -128 0
-116 25 -161 157 -287 75 -71 108 -129 108 -188 0 -57 -22 -84 -70 -84 -50 0
-70 27 -70 92 l0 48 -65 0 -65 0 0 -59 c0 -63 25 -135 59 -165 50 -46 166 -59
236 -27 83 37 125 132 110 244 -12 84 -42 133 -140 231 -104 103 -125 136
-125 200 0 56 19 76 70 76 46 0 60 -18 60 -79 0 -35 4 -42 24 -47 26 -6 87 -1
104 10 13 8 4 98 -14 141 -17 41 -50 74 -90 91 -50 21 -141 18 -191 -7z"/>
<path d="M869 1563 c0 -5 -1 -201 -2 -438 l0 -430 66 -3 67 -3 0 195 c0 220
-8 203 91 198 l59 -4 0 -194 0 -194 139 0 139 0 12 85 12 85 78 0 78 0 6 -32
c3 -18 8 -57 12 -85 l7 -53 133 0 134 0 0 302 c0 166 3 299 6 296 3 -3 23
-124 44 -269 54 -367 42 -329 107 -329 34 0 55 5 58 13 4 12 38 227 71 452 9
61 20 121 24 135 5 14 9 -110 9 -287 l1 -313 65 0 65 0 0 440 0 440 -99 0 -99
0 -6 -32 c-3 -18 -22 -152 -42 -298 -19 -146 -37 -267 -39 -269 -6 -6 -13 33
-40 239 -14 107 -31 232 -38 278 l-11 82 -98 0 -98 0 -1 -397 c-1 -219 -5
-409 -9 -423 l-8 -25 -1 29 c-1 15 -8 67 -16 115 -9 47 -36 212 -60 366 -25
154 -48 292 -51 308 l-6 27 -92 0 -93 0 -7 -37 c-4 -21 -29 -175 -56 -343 -76
-465 -77 -470 -84 -477 -3 -3 -6 188 -6 425 l0 432 -70 0 -70 0 -2 -177 -3
-178 -70 0 -70 0 -3 178 -2 177 -65 0 c-36 0 -65 -3 -66 -7z m695 -380 c14
-100 26 -187 26 -193 0 -6 -25 -10 -61 -10 l-60 0 6 48 c4 26 13 85 20 132 8
47 17 116 21 153 4 37 10 64 14 60 5 -4 20 -90 34 -190z"/>
<path d="M2390 1130 l0 -441 68 3 67 3 3 171 2 172 63 4 c154 10 213 93 205
289 -5 122 -31 181 -97 216 -40 21 -57 23 -178 23 l-133 0 0 -440z m254 288
c11 -16 16 -46 16 -105 0 -121 -15 -143 -97 -143 l-33 0 0 135 0 135 49 0 c40
0 53 -4 65 -22z"/>
<path d="M2810 1130 l0 -441 68 3 67 3 3 198 2 197 65 0 c35 0 67 -5 70 -10 3
-6 7 -94 8 -198 l2 -187 68 -3 67 -3 0 441 0 441 -67 -3 -68 -3 -3 -177 -2
-178 -70 0 -70 0 0 180 0 180 -70 0 -70 0 0 -440z"/>
<path d="M3712 1187 l3 -383 28 -43 c48 -73 154 -101 250 -67 48 18 73 40 101
91 20 39 21 51 21 410 l0 370 -65 0 -65 0 -3 -359 c-2 -317 -4 -362 -19 -378
-19 -22 -71 -24 -99 -4 -18 14 -19 31 -22 380 l-3 366 -65 0 -65 0 3 -383z"/>
<path d="M4550 1130 l0 -440 188 2 187 3 3 54 c2 37 -1 57 -10 62 -7 5 -61 9
-120 9 l-108 0 0 135 0 135 95 0 95 0 0 60 0 60 -95 0 -96 0 3 118 3 117 118
3 117 3 0 59 0 60 -190 0 -190 0 0 -440z"/>
</g>
</svg>
